<?xml version="1.0" standalone="no"?>
<!DOCTYPE svg PUBLIC "-//W3C//DTD SVG 1.1//EN" "http://www.w3.org/Graphics/SVG/1.1/DTD/svg11.dtd" >
<svg>
<metadata>
Created by FontForge 20110222 at Mon Mar  7 13:36:21 2011
 By www-data
Copyright by Aleksander Shevchuk at 2010 year.
</metadata>
<defs>
<font id="Untitled" horiz-adv-x="270" >
  <font-face 
    font-family="AleksandraC"
    font-weight="400"
    font-stretch="normal"
    units-per-em="1000"
    panose-1="2 0 0 0 0 0 0 0 0 0"
    ascent="750"
    descent="-250"
    x-height="545"
    cap-height="750"
    bbox="0 -210 956 843"
    underline-thickness="50"
    underline-position="-50"
    unicode-range="U+0020-2122"
  />
    <missing-glyph />
    <glyph glyph-name="space" unicode=" " horiz-adv-x="345" 
 />
    <glyph glyph-name="afii10088" unicode="&#x446;" horiz-adv-x="642" 
d="M514 51h68l-5 -119h-52l-6 68h-302c-72 0 -137 49 -137 118v421l68 12v-433c0 -32 33 -66 66 -67h232v494h68v-494z" />
    <glyph glyph-name="A" unicode="A" horiz-adv-x="646" 
d="M510 0c0 0 2 170 -4 252h-364c-8 -83 -5 -252 -5 -252h-77c0 677 144 757 263 757c108 0 263 -71 263 -757h-76zM145 307h359c-17 204 -71 395 -184 395c-117 0 -156 -210 -175 -395z" />
    <glyph glyph-name="B" unicode="B" horiz-adv-x="617" 
d="M576 239c6 -137 -68 -226 -187 -239c-134 -15 -309 0 -309 0v750s191 18 292 -3c124 -24 139 -108 143 -171c3 -71 -23 -135 -70 -157v-6c67 -18 128 -79 131 -174zM149 698v-261s47 -2 114 -2s27 0 89 6c64 7 93 56 93 128c0 50 -21 105 -73 119c-86 24 -223 10 -223 10
zM398 54c170 37 155 313 -3 321c-76 4 -75 5 -134 5s-112 -1 -112 -1v-327s155 -18 249 2z" />
    <glyph glyph-name="C" unicode="C" horiz-adv-x="604" 
d="M544 130l-10 -82s-49 -55 -177 -55c-168 0 -297 94 -297 382c0 285 124 382 292 382c122 0 172 -44 172 -44l-12 -85s-46 74 -160 74c-136 0 -221 -102 -222 -327c1 -238 91 -331 227 -331c95 0 187 86 187 86z" />
    <glyph glyph-name="E" unicode="E" horiz-adv-x="575" 
d="M500 695h-352v-265h298l-13 -55h-285v-324h367v-51h-435v750h430z" />
    <glyph glyph-name="F" unicode="F" horiz-adv-x="490" 
d="M480 695h-332v-265h278l-13 -55h-265v-375h-68v750h410z" />
    <glyph glyph-name="H" unicode="H" horiz-adv-x="675" 
d="M527 750h68v-750h-68v360h-378v-360h-69v744l69 12v-341h378v335z" />
    <glyph glyph-name="K" unicode="K" horiz-adv-x="648" 
d="M483 280c20 -57 95 -280 95 -280h-79l-84 275c-13 43 -31 78 -100 82s-167 0 -167 0v-357h-68v744l68 12v-331s49 -3 109 0c59 4 84 43 97 73c16 37 97 252 97 252h78s-92 -222 -108 -263c-15 -38 -35 -58 -58 -72v-6c55 -13 100 -71 120 -129z" />
    <glyph glyph-name="M" unicode="M" horiz-adv-x="747" 
d="M377 367l222 383h65v-750h-65v636h-7l-186 -328h-66l-186 328h-6v-636h-66v750h66l222 -383h7z" />
    <glyph glyph-name="O" unicode="O" horiz-adv-x="664" 
d="M332 757c168 0 282 -86 282 -382c0 -293 -114 -382 -282 -382s-282 89 -282 382c0 296 114 382 282 382zM332 44c136 0 211 87 212 331c-1 235 -76 327 -212 327s-211 -92 -212 -327c1 -244 76 -331 212 -331z" />
    <glyph glyph-name="P" unicode="P" horiz-adv-x="606" 
d="M328 753c117 -9 228 -57 228 -255c0 -220 -76 -304 -224 -304c-147 0 -177 37 -177 37h-6v-231h-69v750s133 13 248 3zM488 493c0 154 -63 186 -138 200c-106 19 -201 2 -201 2v-420s58 -26 199 -26c108 0 140 78 140 244z" />
    <glyph glyph-name="N" unicode="N" horiz-adv-x="653" 
d="M505 0l-350 604h-7v-604h-68v750h68l351 -604h6v604h68v-750h-68z" />
    <glyph glyph-name="R" unicode="R" horiz-adv-x="654" 
d="M344 755c126 -5 227 -44 227 -242c0 -96 -32 -142 -87 -173v-7c29 -25 49 -68 58 -111c9 -39 35 -151 52 -222h-68c-17 68 -42 171 -52 213c-12 45 -25 93 -90 97c-7 1 -58 -1 -127 5c-89 8 -103 27 -103 27h-6v-342h-68v750s138 11 264 5zM148 383c0 0 47 -16 220 -16
c93 0 135 57 135 140c0 155 -73 191 -146 193c-134 4 -209 1 -209 1v-318z" />
    <glyph glyph-name="T" unicode="T" horiz-adv-x="549" 
d="M529 750v-62l-221 7v-695h-68v695l-220 -7v62h509z" />
    <glyph glyph-name="X" unicode="X" horiz-adv-x="633" 
d="M357 387l256 -387h-89l-199 328h-6l-200 -328h-89l256 387v6l-237 357h89l181 -298h6l180 298h89l-237 -357v-6z" />
    <glyph glyph-name="a" unicode="a" horiz-adv-x="587" 
d="M486 129c0 -28 9 -55 36 -61c40 -11 29 -79 -18 -67c-14 4 -45 15 -54 56h-6c-32 -40 -54 -52 -91 -58c-4 0 -43 -5 -78 -6c-177 -4 -220 74 -220 156c0 79 32 126 114 161c51 22 168 34 199 37s42 21 42 45c0 6 -1 26 -2 34c-5 22 -9 85 -134 74
c-90 -8 -160 -60 -160 -60l8 75s40 29 151 36c158 10 204 -73 205 -139c0 0 8 -230 8 -283zM280 44c120 0 138 63 138 93h1l-7 183h-6s-7 -20 -32 -24c-37 -5 -156 -14 -197 -45c-46 -35 -53 -64 -53 -107c0 -42 13 -100 156 -100z" />
    <glyph glyph-name="e" unicode="e" horiz-adv-x="542" 
d="M260 552c147 4 232 -65 232 -208c0 -32 -6 -74 -6 -74l-367 -5c0 -95 22 -221 153 -221c135 0 199 85 199 85l-15 -85s-60 -51 -189 -51c-200 0 -217 174 -217 285c0 213 94 271 210 274zM119 320l310 5c1 104 -28 176 -163 176c-116 0 -147 -87 -147 -181z" />
    <glyph glyph-name="o" unicode="o" horiz-adv-x="544" 
d="M504 279c0 -138 -44 -286 -230 -286c-105 0 -234 68 -234 286c0 206 112 273 234 273c144 0 230 -104 230 -273zM280 44c143 0 157 133 157 235c0 109 -34 222 -157 222c-141 0 -173 -130 -173 -222c0 -187 93 -235 173 -235z" />
    <glyph glyph-name="p" unicode="p" horiz-adv-x="536" 
d="M281 552c121 0 215 -77 215 -290c0 -164 -76 -269 -227 -269c-87 0 -110 33 -115 39h-6v-231l-68 -11v749l55 12l3 -38h6c16 27 92 39 137 39zM429 262c0 64 -9 239 -142 239c-100 0 -139 -30 -139 -30v-382s46 -45 126 -45c104 0 155 91 155 218z" />
    <glyph glyph-name="q" unicode="q" horiz-adv-x="556" 
d="M275 552c45 0 121 -12 137 -39h6l3 32h55v-755l-68 11v231h-6c-5 -6 -28 -39 -115 -39c-151 0 -227 105 -227 269c0 213 94 290 215 290zM127 262c0 -127 51 -218 155 -218c80 0 126 45 126 45v382s-39 30 -139 30c-133 0 -142 -175 -142 -239z" />
    <glyph glyph-name="y" unicode="y" horiz-adv-x="579" 
d="M431 545h68v-546c0 -108 -23 -203 -216 -203c-130 0 -195 59 -195 59l15 65s63 -67 185 -67c104 0 143 34 143 114v63h-6s-21 -37 -142 -37c-158 0 -203 120 -203 181v365l69 11v-378c0 -41 29 -128 139 -128c134 0 143 35 143 35v466z" />
    <glyph glyph-name="c" unicode="c" horiz-adv-x="498" 
d="M448 134l-10 -87s-41 -54 -155 -54c-227 0 -230 175 -232 284c-3 217 127 275 216 275c118 0 174 -43 174 -43l-15 -78s-39 72 -152 71c-143 -2 -157 -136 -156 -224c2 -122 0 -234 170 -234c99 0 160 90 160 90z" />
    <glyph glyph-name="Y" unicode="Y" horiz-adv-x="585" 
d="M575 744c0 -289 -130 -453 -228 -475v-269h-69v269c-82 16 -228 185 -228 475l71 11s18 -434 194 -434s189 434 189 434z" />
    <glyph glyph-name="Z" unicode="Z" horiz-adv-x="584" 
d="M544 750v-51l-429 -642v-7l429 6v-56h-514v50l429 643v6l-388 -5v56h473z" />
    <glyph glyph-name="W" unicode="W" horiz-adv-x="974" 
d="M853 750h71c0 -677 -117 -757 -237 -757c-71 0 -167 69 -196 421h-7c-10 -363 -119 -421 -198 -421c-108 0 -236 69 -236 751l71 12s-21 -712 168 -712c182 0 162 700 162 700l71 12s-6 -712 168 -712c181 0 163 706 163 706z" />
    <glyph glyph-name="V" unicode="V" horiz-adv-x="625" 
d="M315 43c207 0 189 712 189 712l71 -11c0 -677 -144 -751 -263 -751c-108 0 -262 65 -262 751l70 11s-16 -712 195 -712z" />
    <glyph glyph-name="U" unicode="U" horiz-adv-x="690" 
d="M540 754l70 -11v-369c0 -293 -97 -381 -265 -381s-265 88 -265 381v369l69 11v-380c1 -243 59 -331 196 -331c136 0 194 88 195 331v380z" />
    <glyph glyph-name="S" unicode="S" horiz-adv-x="568" 
d="M266 426c218 21 262 -108 262 -195c0 -137 -86 -238 -276 -238c-124 0 -202 79 -202 79l8 123s58 -152 194 -152c148 0 207 88 207 188c0 109 -67 160 -183 147c-188 -21 -216 105 -216 174c0 156 108 205 211 205c110 0 177 -52 177 -52l6 -122s-46 123 -183 123
c-114 0 -144 -70 -144 -154c0 -73 56 -135 139 -126z" />
    <glyph glyph-name="Q" unicode="Q" horiz-adv-x="664" 
d="M332 757c168 0 282 -86 282 -382c0 -293 -114 -382 -282 -382s-282 89 -282 382c0 296 114 382 282 382zM361 342l126 -238c50 53 56 124 57 271c-1 235 -76 327 -212 327s-211 -92 -212 -327c1 -244 76 -331 212 -331c35 0 96 13 117 33l-157 218z" />
    <glyph glyph-name="L" unicode="L" horiz-adv-x="564" 
d="M518 60l6 -60h-444v744l68 12v-704z" />
    <glyph glyph-name="J" unicode="J" horiz-adv-x="416" 
d="M103 750h233v-578c0 -65 -15 -179 -146 -179c-129 0 -150 84 -150 157l77 22c-25 -87 21 -128 67 -128c56 0 84 64 84 126v525l-165 -6v61z" />
    <glyph glyph-name="I" unicode="I" horiz-adv-x="410" 
d="M330 689l-91 6v-645l91 6v-56h-250v56l91 -6v645l-91 -6v61h250v-61z" />
    <glyph glyph-name="G" unicode="G" horiz-adv-x="624" 
d="M329 408h225v-298s-51 -117 -197 -117c-168 0 -297 94 -297 382c0 286 124 382 292 382c122 0 172 -44 172 -44l-12 -85s-46 74 -160 74c-136 0 -222 -102 -223 -327c1 -238 92 -327 228 -327c48 0 94 20 129 40v269h-163z" />
    <glyph glyph-name="D" unicode="D" horiz-adv-x="639" 
d="M226 757c224 0 353 -101 353 -382c0 -279 -130 -382 -353 -382c-111 0 -146 7 -146 7v750s60 7 146 7zM226 44c181 0 282 102 283 331c-1 221 -71 327 -283 327c-33 0 -59 -1 -77 -2v-653c11 -2 34 -3 77 -3z" />
    <glyph glyph-name="z" unicode="z" horiz-adv-x="529" 
d="M147 51l322 6v-57h-409v51l316 437v6l-294 -6v57h380v-51l-315 -437v-6z" />
    <glyph glyph-name="x" unicode="x" horiz-adv-x="539" 
d="M509 0h-91l-146 230h-6l-146 -230h-90l194 277v6l-184 262h91l135 -216h7l135 216h91l-184 -262v-6z" />
    <glyph glyph-name="b" unicode="b" horiz-adv-x="555" 
d="M495 283c0 -213 -94 -290 -214 -290c-45 0 -121 12 -138 38h-6l-2 -31h-55v748l68 11v-246h6c5 6 28 39 115 39c151 0 226 -105 226 -269zM286 44c134 0 142 175 142 239c0 127 -50 218 -154 218c-80 0 -126 -45 -126 -45v-382s39 -30 138 -30z" />
    <glyph glyph-name="f" unicode="f" horiz-adv-x="397" 
d="M289 702c-80 0 -68 -157 -68 -157h134v-61l-134 6v-490h-68v490l-123 -6v61h123s-21 212 137 212c51 0 77 -24 77 -24l-20 -63s-25 32 -58 32z" />
    <glyph glyph-name="g" unicode="g" horiz-adv-x="556" 
d="M419 513l2 32h55v-534c0 -78 -23 -171 -216 -171c-79 0 -155 22 -155 22l18 78s60 -45 142 -45c104 0 143 49 143 109v24h-6c-14 -11 -49 -35 -115 -35c-161 0 -227 75 -227 269c0 238 84 290 215 290c40 0 111 -18 137 -39h7zM282 44c80 0 126 22 126 22v406
s-74 29 -139 29c-148 0 -142 -150 -142 -239c0 -157 41 -218 155 -218z" />
    <glyph glyph-name="h" unicode="h" horiz-adv-x="576" 
d="M280 552c183 0 216 -98 216 -269v-283h-68v283c0 130 -7 218 -143 218c-80 0 -137 -27 -137 -27v-191v-283h-68v0v748l68 11v-242h7c12 9 51 35 125 35z" />
    <glyph glyph-name="i" unicode="i" horiz-adv-x="248" 
d="M80 679l17 71h71l-17 -71h-71zM153 0h-68v540l68 11v-551z" />
    <glyph glyph-name="j" unicode="j" horiz-adv-x="236" 
d="M88 679l17 71h71l-17 -71h-71zM96 -31v571l68 11v-571c0 -102 -37 -137 -164 -123l14 75c72 -28 82 -33 82 37z" />
    <glyph glyph-name="k" unicode="k" horiz-adv-x="546" 
d="M433 183l43 -183h-76s-21 143 -36 179s-33 70 -64 81c-10 4 -22 6 -34 6l-118 1v-267h-68v748l68 11v-437l101 1c12 0 23 2 34 6c30 11 58 47 67 78c10 31 33 138 33 138h66s-24 -103 -33 -143c-10 -39 -31 -70 -61 -97v-6c39 -26 69 -69 78 -116z" />
    <glyph glyph-name="l" unicode="l" horiz-adv-x="248" 
d="M158 0h-68v748l68 11v-759z" />
    <glyph glyph-name="m" unicode="m" horiz-adv-x="853" 
d="M580 552c105 0 193 -51 193 -166v-386h-68v388c0 65 -59 113 -123 113c-96 0 -125 -60 -125 -60v-441h-67v377c0 67 -41 124 -120 124c-84 0 -122 -60 -122 -60v-441h-68v539l55 12l3 -67h6c25 33 63 68 127 68c123 0 150 -68 150 -68h7s45 68 152 68z" />
    <glyph glyph-name="n" unicode="n" horiz-adv-x="591" 
d="M274 552c175 0 237 -64 237 -269v-283h-68v283c0 164 -36 218 -164 218c-89 0 -131 -60 -131 -60v-158v-283h-68v289v250l54 12l4 -67h7s51 68 129 68z" />
    <glyph glyph-name="r" unicode="r" horiz-adv-x="383" 
d="M308 552h40l-12 -77s-33 21 -90 -6c-73 -34 -78 -71 -78 -71v-398h-68v539l64 13l4 -73h6s39 73 134 73z" />
    <glyph glyph-name="s" unicode="s" horiz-adv-x="540" 
d="M70 147c0 0 53 -103 199 -103c149 0 143 92 143 130c0 7 -3 112 -139 91c-147 -22 -199 50 -199 139c0 24 2 148 196 148c94 0 141 -27 141 -27l18 -91s-51 67 -160 67c-77 0 -106 -30 -122 -64c-23 -53 3 -130 126 -111c147 22 207 -61 207 -151
c0 -107 -55 -182 -210 -182c-135 0 -210 64 -210 64z" />
    <glyph glyph-name="t" unicode="t" horiz-adv-x="408" 
d="M346 76l12 -64s-21 -19 -78 -19c-106 0 -123 60 -123 175l2 322l-109 -6v61h109l3 202l69 12l-4 -214h127v-61l-127 6l-2 -324c0 -72 3 -122 55 -122c45 0 66 32 66 32z" />
    <glyph glyph-name="u" unicode="u" horiz-adv-x="579" 
d="M283 -7c-158 0 -203 113 -203 175v371l69 12v-385c0 -41 29 -122 140 -122c119 0 142 61 142 61v440h68v-545h-64l-4 58h-6s-22 -65 -142 -65z" />
    <glyph glyph-name="v" unicode="v" horiz-adv-x="570" 
d="M450 555l69 -12s14 -550 -234 -550c-240 0 -234 550 -234 550l69 12s5 -511 165 -511s165 511 165 511z" />
    <glyph glyph-name="w" unicode="w" horiz-adv-x="820" 
d="M779 543c0 0 17 -550 -202 -550c-106 0 -152 179 -162 365h-7c-14 -185 -53 -365 -165 -365c-211 0 -202 550 -202 550l69 12s1 -511 133 -511c97 0 132 499 132 499l69 12s42 -511 133 -511c131 0 133 511 133 511z" />
    <glyph glyph-name="d" unicode="d" horiz-adv-x="555" 
d="M80 283c0 164 75 269 226 269c87 0 110 -33 115 -39h6v246l68 -11v-748h-55l-2 31h-6c-17 -26 -93 -38 -138 -38c-120 0 -214 77 -214 290zM289 44c99 0 138 30 138 30v382s-46 45 -126 45c-104 0 -154 -91 -154 -218c0 -64 8 -239 142 -239z" />
    <glyph glyph-name="one" unicode="1" horiz-adv-x="466" 
d="M280 51h136v-51h-366v51h161v636h-6l-113 -90l18 94l101 59h69v-699z" />
    <glyph glyph-name="two" unicode="2" horiz-adv-x="594" 
d="M534 583c0 -287 -403 -161 -406 -532h385v-51h-453v51c3 408 406 294 406 532c0 52 -44 119 -170 119c-107 0 -211 -105 -211 -105l14 100s90 60 197 60c113 0 238 -45 238 -174z" />
    <glyph glyph-name="three" unicode="3" horiz-adv-x="626" 
d="M440 408c33 -22 106 -73 106 -188c0 -50 -9 -227 -256 -227c-182 0 -230 92 -230 92l14 88s45 -129 215 -129c53 0 190 44 190 176c0 116 -67 154 -110 154c-18 0 -51 1 -103 1c-72 0 -123 -1 -123 -1l15 57s38 -2 108 -2c44 0 68 2 83 2c37 0 108 27 108 126
c0 23 -9 145 -164 145c-131 0 -202 -78 -202 -78l15 89s39 44 187 44c143 0 231 -66 231 -200c0 -100 -64 -126 -84 -143v-6z" />
    <glyph glyph-name="four" unicode="4" horiz-adv-x="614" 
d="M470 750v-495h74l-19 -68h-55v-187h-68v187h-372v68l372 495h68zM402 255v382h-6l-281 -376v-6h287z" />
    <glyph glyph-name="five" unicode="5" horiz-adv-x="616" 
d="M319 511c130 0 237 -80 237 -260c0 -54 -17 -258 -264 -258c-150 0 -222 73 -222 73l12 105s59 -127 209 -127c53 0 192 26 192 207c0 144 -70 208 -158 208c-115 0 -185 -102 -185 -102l-55 20l43 373h382v-68h-322l-26 -236h6c27 33 64 65 151 65z" />
    <glyph glyph-name="six" unicode="6" horiz-adv-x="639" 
d="M322 509c138 0 257 -92 257 -257c0 -140 -77 -259 -257 -259c-95 0 -262 47 -262 259c0 97 0 139 6 260c2 43 7 245 259 245c145 0 206 -68 206 -68l-13 -82s-44 95 -192 95c-114 0 -185 -57 -192 -190c-2 -27 -5 -85 -5 -100h6c38 82 120 97 187 97zM327 44
c149 0 184 90 184 208c0 105 -66 206 -184 206c-141 0 -200 -99 -200 -206c0 -168 120 -208 200 -208z" />
    <glyph glyph-name="seven" unicode="7" horiz-adv-x="528" 
d="M10 691v59h508v-55s-152 -101 -249 -354c-48 -127 -61 -341 -61 -341h-72s20 213 64 341c96 280 250 348 250 348v6z" />
    <glyph glyph-name="eight" unicode="8" horiz-adv-x="628" 
d="M440 411c64 -34 128 -108 128 -191c0 -122 -74 -227 -254 -227c-95 0 -254 45 -254 227c0 91 67 161 128 191v6c-46 27 -97 76 -97 152c0 126 113 188 225 188c134 0 216 -88 216 -188c0 -58 -42 -120 -92 -152v-6zM158 569c0 -83 90 -135 156 -135c105 0 151 71 151 135
c0 49 -30 133 -143 133c-131 0 -164 -79 -164 -133zM314 44c138 0 187 90 187 176c0 82 -70 170 -179 170c-126 0 -195 -83 -195 -170c0 -131 117 -176 187 -176z" />
    <glyph glyph-name="nine" unicode="9" horiz-adv-x="638" 
d="M317 757c95 0 261 -52 261 -260c0 -96 0 -138 -6 -259c-2 -43 -7 -245 -259 -245c-145 0 -206 68 -206 68l13 82v0s44 -99 192 -99c114 0 185 61 192 194c2 26 5 85 5 100h-6c-38 -82 -120 -98 -186 -98c-139 0 -257 93 -257 257c0 126 81 260 257 260zM311 292
c141 0 200 99 200 205c0 164 -120 205 -200 205c-143 0 -184 -102 -184 -205c0 -105 66 -205 184 -205z" />
    <glyph glyph-name="zero" unicode="0" horiz-adv-x="638" 
d="M344 757c163 0 294 -92 294 -382c0 -293 -126 -382 -294 -382c-160 0 -294 97 -294 382c0 296 126 382 294 382zM120 375c4 -101 14 -166 47 -225l312 509c-35 28 -83 43 -135 43c-136 0 -223 -92 -224 -327zM344 44c136 0 223 87 224 331c-3 102 -16 167 -47 228
l-311 -513c31 -31 82 -46 134 -46z" />
    <glyph glyph-name="exclam" unicode="!" horiz-adv-x="262" 
d="M80 0h77l25 78h-78zM178 763l-11 -620h-62l-10 590z" />
    <glyph glyph-name="perthousand" unicode="&#x2030;" horiz-adv-x="1006" 
d="M612 750l-433 -750h-79l433 750h79zM492 329c103 0 141 -89 141 -168c0 -78 -43 -168 -141 -168c-99 0 -141 90 -141 168c0 79 41 168 141 168zM492 44c66 0 80 66 80 116s-9 116 -80 116c-69 0 -80 -66 -80 -116s13 -116 80 -116zM221 757c103 0 141 -90 141 -168
c0 -79 -43 -168 -141 -168c-99 0 -141 89 -141 168c0 78 41 168 141 168zM221 472c66 0 80 66 80 116s-9 116 -80 116c-69 0 -80 -66 -80 -116s13 -116 80 -116zM815 329c103 0 141 -89 141 -168c0 -78 -43 -168 -141 -168c-99 0 -141 90 -141 168c0 79 41 168 141 168z
M815 44c66 0 80 66 80 116s-9 116 -80 116c-69 0 -80 -66 -80 -116s13 -116 80 -116z" />
    <glyph glyph-name="ampersand" unicode="&#x26;" horiz-adv-x="681" 
d="M621 433l-18 -58h-24v-253s-44 -129 -226 -129c-252 0 -273 162 -273 227c0 115 52 166 86 188v6c-21 17 -64 43 -64 143c0 134 106 200 248 200c148 0 176 -51 176 -51l14 -89s-59 85 -190 85c-155 0 -180 -122 -180 -145c0 -119 83 -147 83 -147s-105 -35 -105 -190
c0 -147 148 -176 206 -176c75 0 125 25 157 53v278h-200l18 58h292z" />
    <glyph glyph-name="dollar" unicode="$" horiz-adv-x="565" 
d="M525 231c0 -122 -67 -215 -217 -234v-77l-68 -11v85c-117 4 -190 79 -190 79l9 122s54 -143 181 -150v330c-155 -2 -180 111 -180 175c0 141 88 194 180 203v75l68 11v-87c87 -10 138 -50 138 -50l6 -121s-37 99 -144 119v-273c180 1 217 -115 217 -196zM127 550
c0 -66 44 -121 113 -126v278c-89 -11 -113 -76 -113 -152zM308 49c106 20 149 96 149 182c0 97 -54 148 -149 148v-330z" />
    <glyph glyph-name="copyright" unicode="&#xa9;" horiz-adv-x="844" 
d="M598 272l-10 -90s-38 -65 -152 -65c-192 0 -231 169 -232 262c-3 197 141 254 216 254c117 0 173 -50 173 -50l-14 -82s-39 84 -153 82c-127 -1 -156 -135 -155 -203c1 -107 35 -212 169 -212c100 0 158 104 158 104zM421 757c211 0 373 -171 373 -382
s-162 -382 -373 -382s-371 171 -371 382s160 382 371 382zM421 44c173 0 305 161 305 334c0 174 -132 324 -305 324s-303 -150 -303 -324c0 -173 130 -334 303 -334z" />
    <glyph glyph-name="registered" unicode="&#xae;" horiz-adv-x="843" 
d="M266 604c0 0 47 20 153 20c117 0 191 -71 191 -143c0 -93 -41 -113 -72 -132v-6c29 -26 53 -69 62 -111c8 -40 1 -7 17 -78h-67c-17 67 -8 27 -19 69c-11 45 -23 107 -134 112c-36 1 -56 17 -56 17h-7v-198h-68v450zM334 556v-163s21 -17 92 -17c92 0 119 18 119 101
c0 61 -57 91 -130 91c-48 0 -81 -12 -81 -12zM422 757c211 0 371 -171 371 -382s-160 -382 -371 -382s-372 171 -372 382s161 382 372 382zM422 44c173 0 303 161 303 334c0 174 -130 324 -303 324s-304 -150 -304 -324c0 -173 131 -334 304 -334z" />
    <glyph glyph-name="at" unicode="@" horiz-adv-x="844" 
d="M794 382v-22c-7 -147 -80 -197 -109 -203c-22 -5 -41 -6 -57 -3c-27 6 -41 37 -41 37h-12c-32 -40 -54 -52 -91 -58c-4 -1 -24 -6 -59 -6c-168 -4 -198 72 -198 150c0 59 52 104 99 124c51 22 141 40 173 42c31 3 42 22 42 46c0 6 -1 20 -2 28c-5 22 -9 74 -134 63
c-103 -9 -149 -84 -161 -100l8 83s40 61 151 68c159 10 205 -56 206 -122c0 0 8 -184 8 -242c3 -49 17 -68 37 -68c21 0 57 43 73 104c5 16 -1 49 -1 75c0 174 -131 324 -304 324s-304 -150 -304 -324c0 -173 136 -334 309 -334c141 0 241 85 241 85l-17 -94
s-55 -42 -224 -42c-211 0 -377 171 -377 382s161 382 372 382c209 0 368 -167 372 -375zM550 270l-7 146h-6s-7 -20 -32 -23c-37 -6 -137 -15 -179 -46c-15 -12 -33 -39 -33 -70c0 -42 -6 -99 137 -99c120 0 119 63 120 92z" />
    <glyph glyph-name="question" unicode="?" horiz-adv-x="514" 
d="M168 0l25 78h78l-24 -78h-79zM291 420c76 42 96 91 96 148c0 70 -29 139 -143 139c-138 0 -184 -140 -184 -140l6 127s67 63 178 63c102 0 210 -47 210 -189c0 -94 -41 -143 -143 -192c-52 -25 -111 -129 -35 -205l-85 -26s-89 172 100 275z" />
    <glyph glyph-name="semicolon" unicode=";" 
d="M83 467l25 78h78l-25 -78h-78zM190 78c0 0 -19 -58 -25 -78c-16 -52 -52 -70 -85 -74l14 43c25 -12 47 8 54 31h-61l25 78h78z" />
    <glyph glyph-name="hyphen" unicode="-" horiz-adv-x="386" 
d="M80 234l24 78h202l-25 -78h-201z" />
    <glyph glyph-name="emdash" unicode="&#x2014;" horiz-adv-x="712" 
d="M105 312h527l-25 -78h-527z" />
    <glyph glyph-name="plus" unicode="+" horiz-adv-x="550" 
d="M470 432l-24 -78h-132v-132l-78 -24v156h-156l24 78h132v131l78 25v-156h156z" />
    <glyph glyph-name="endash" unicode="&#x2013;" horiz-adv-x="551" 
d="M105 312h366l-25 -78h-366z" />
    <glyph glyph-name="equal" unicode="=" horiz-adv-x="550" 
d="M104 326h366l-24 -78h-366zM104 498h366l-24 -78h-366z" />
    <glyph glyph-name="quotesingle" unicode="'" horiz-adv-x="248" 
d="M80 595l8 162h80l-43 -162h-45z" />
    <glyph glyph-name="asciicircum" unicode="^" horiz-adv-x="386" 
d="M336 662l-38 -72l-102 121h-6l-102 -121l-38 72l143 143z" />
    <glyph glyph-name="bracketleft" unicode="[" horiz-adv-x="345" 
d="M285 682h-132v-631h129v-52h-202v751h205v-68z" />
    <glyph glyph-name="bar" unicode="|" horiz-adv-x="228" 
d="M148 843v-925l-68 -12v925z" />
    <glyph glyph-name="parenright" unicode=")" horiz-adv-x="352" 
d="M90 -87l-30 40c11 5 141 108 142 331c-1 213 -138 325 -142 328l25 45c50 -21 187 -140 187 -373c0 -230 -125 -346 -182 -371z" />
    <glyph glyph-name="guillemotright" unicode="&#xbb;" horiz-adv-x="630" 
d="M330 23l-68 38l218 209v7l-218 209l68 38l250 -250zM148 23l-68 38l218 209v7l-218 209l68 38l250 -250z" />
    <glyph glyph-name="plusminus" unicode="&#xb1;" horiz-adv-x="550" 
d="M104 231h366l-24 -78h-366zM470 496l-24 -78h-132v-132l-78 -24v156h-156l24 78h132v132l78 24v-156h156z" />
    <glyph glyph-name="asciitilde" unicode="~" horiz-adv-x="512" 
d="M283 303c90 -52 132 -15 162 16l17 -15c-24 -66 -113 -117 -213 -60c-56 32 -124 29 -183 7l-16 18c22 22 105 107 233 34z" />
    <glyph glyph-name="braceright" unicode="}" horiz-adv-x="338" 
d="M182 556c0 -156 106 -170 106 -170s-106 -35 -106 -190c0 -147 -63 -173 -106 -205l-16 23c49 41 54 117 54 182c0 115 53 166 86 188v5c-33 22 -86 51 -86 167c0 64 -5 140 -54 181l16 23c43 -32 106 -57 106 -204z" />
    <glyph glyph-name="paragraph" unicode="&#xb6;" horiz-adv-x="672" 
d="M199 750h393l-25 -78h-88v-673h-78v673h-124v-673h-78v420c-88 2 -139 76 -139 165c0 90 51 163 139 166z" />
    <glyph glyph-name="trademark" unicode="&#x2122;" horiz-adv-x="624" 
d="M80 702v48h209v-48l-79 4v-205h-52v205zM440 527l57 223h47v-249h-47v120h-6l-22 -120h-65l-25 120h-7v-120h-46v249h46l62 -223h6z" />
    <glyph glyph-name="asterisk" unicode="*" horiz-adv-x="408" 
d="M328 654v-57l-65 6l-2 -4l51 -41l-40 -40l-37 51l-4 -2l1 -65h-57l2 65l-4 2l-37 -51l-40 40l51 41l-2 4l-65 -6v57l65 -5l2 4l-51 40l40 40l38 -50l4 2l-3 65h57l-2 -65l4 -2l38 50l40 -40l-51 -40l2 -4z" />
    <glyph glyph-name="Euro" unicode="&#x20ac;" horiz-adv-x="662" 
d="M192 289c20 -175 104 -245 223 -245c95 0 187 85 187 85l-10 -82s-49 -55 -177 -55c-151 0 -270 76 -294 297h-57l-14 67h67c0 19 0 40 1 59h-68l14 67h60c28 203 140 275 285 275c122 0 172 -44 172 -44l-12 -85s-46 74 -160 74c-112 0 -190 -70 -214 -220h294l-20 -67
h-281c-1 -19 -1 -40 -1 -59h265l-20 -67h-240z" />
    <glyph glyph-name="numbersign" unicode="#" horiz-adv-x="804" 
d="M546 449l-45 -155h198l-25 -78h-199l-68 -216h-78l68 216h-86l-68 -216h-79l68 216h-172l25 78h173l45 155h-198l25 78h199l62 216l78 24l-62 -240h86l58 223h86l-65 -223h172l-25 -78h-173zM336 294h87l45 155h-87z" />
    <glyph glyph-name="period" unicode="." 
d="M83 0l25 78h78l-25 -78h-78z" />
    <glyph glyph-name="comma" unicode="," 
d="M190 78c0 0 -19 -58 -25 -78c-16 -52 -52 -70 -85 -74l14 43c25 -12 47 8 54 31h-61l25 78h78z" />
    <glyph glyph-name="colon" unicode=":" 
d="M83 467l25 78h78l-25 -78h-78zM161 0h-78l25 78h78z" />
    <glyph glyph-name="greater" unicode="&#x3e;" horiz-adv-x="428" 
d="M128 143l-68 38l218 209v7l-218 209l68 38l250 -250z" />
    <glyph glyph-name="less" unicode="&#x3c;" horiz-adv-x="428" 
d="M300 134l-250 251l250 250l68 -38l-218 -209v-7l218 -209z" />
    <glyph glyph-name="quoteright" unicode="&#x2019;" 
d="M190 750c0 0 -19 -58 -25 -78c-16 -52 -52 -70 -85 -74l14 43c25 -12 47 8 54 31h-61l25 78h78z" />
    <glyph glyph-name="quoteleft" unicode="&#x2018;" 
d="M80 672c0 0 19 58 25 78c16 52 52 70 85 74l-14 -43c-25 12 -47 -8 -54 -31h61l-25 -78h-78z" />
    <glyph glyph-name="quotedblright" unicode="&#x201d;" horiz-adv-x="406" 
d="M190 750c0 0 -19 -58 -25 -78c-16 -52 -52 -70 -85 -74l14 43c25 -12 47 8 54 31h-61l25 78h78zM326 750c0 0 -19 -58 -25 -78c-16 -52 -52 -70 -85 -74l14 43c25 -12 47 8 54 31h-61l25 78h78z" />
    <glyph glyph-name="quotedblleft" unicode="&#x201c;" horiz-adv-x="406" 
d="M216 672c0 0 19 58 25 78c16 52 52 70 85 74l-14 -43c-25 12 -47 -8 -54 -31h61l-25 -78h-78zM80 672c0 0 19 58 25 78c16 52 52 70 85 74l-14 -43c-25 12 -47 -8 -54 -31h61l-25 -78h-78z" />
    <glyph glyph-name="parenleft" unicode="(" horiz-adv-x="352" 
d="M262 -87c-57 25 -182 141 -182 371c0 233 137 352 187 373l25 -45c-4 -3 -141 -115 -142 -328c1 -223 131 -326 142 -331z" />
    <glyph glyph-name="slash" unicode="/" horiz-adv-x="512" 
d="M512 750l-433 -750h-79l433 750h79z" />
    <glyph glyph-name="backslash" unicode="\" horiz-adv-x="512" 
d="M433 0l-433 750h79l433 -750h-79z" />
    <glyph glyph-name="bracketright" unicode="]" horiz-adv-x="345" 
d="M60 682v68h205v-751h-202v52h129v631h-132z" />
    <glyph glyph-name="quotedbl" unicode="&#x22;" horiz-adv-x="378" 
d="M80 595l8 162h80l-43 -162h-45zM255 595h-45l8 162h80z" />
    <glyph glyph-name="quotedblbase" unicode="&#x201e;" horiz-adv-x="406" 
d="M190 78c0 0 -19 -58 -25 -78c-16 -52 -52 -70 -85 -74l14 43c25 -12 47 8 54 31h-61l25 78h78zM326 78c0 0 -19 -58 -25 -78c-16 -52 -52 -70 -85 -74l14 43c25 -12 47 8 54 31h-61l25 78h78z" />
    <glyph glyph-name="quotesinglbase" unicode="&#x201a;" 
d="M190 78c0 0 -19 -58 -25 -78c-16 -52 -52 -70 -85 -74l14 43c25 -12 47 8 54 31h-61l25 78h78z" />
    <glyph glyph-name="guillemotleft" unicode="&#xab;" horiz-adv-x="630" 
d="M300 23l-250 251l250 250l68 -38l-218 -209v-7l218 -209zM482 23l-250 251l250 250l68 -38l-218 -209v-7l218 -209z" />
    <glyph glyph-name="degree" unicode="&#xb0;" horiz-adv-x="442" 
d="M221 757c103 0 141 -90 141 -168c0 -79 -43 -168 -141 -168c-99 0 -141 89 -141 168c0 78 41 168 141 168zM221 472c66 0 80 66 80 116s-9 116 -80 116c-69 0 -80 -66 -80 -116s13 -116 80 -116z" />
    <glyph glyph-name="ellipsis" unicode="&#x2026;" horiz-adv-x="553" 
d="M80 0l25 78h78l-25 -78h-78zM308 0h-78l25 78h78zM448 0h-78l25 78h78z" />
    <glyph glyph-name="underscore" unicode="_" horiz-adv-x="852" 
d="M105 1h667l-25 -78h-667z" />
    <glyph glyph-name="braceleft" unicode="{" horiz-adv-x="338" 
d="M156 556c0 147 63 172 106 204l16 -23c-49 -41 -54 -117 -54 -181c0 -116 -53 -145 -86 -167v-5c33 -22 86 -73 86 -188c0 -65 5 -141 54 -182l-16 -23c-43 32 -106 58 -106 205c0 155 -106 190 -106 190s106 14 106 170z" />
    <glyph glyph-name="periodcentered" unicode="&#xb7;" 
d="M83 260l25 78h78l-25 -78h-78z" />
    <glyph glyph-name="bullet" unicode="&#x2022;" horiz-adv-x="353" 
d="M80 301c0 54 42 97 96 97s97 -43 97 -97s-43 -96 -97 -96s-96 42 -96 96z" />
    <glyph glyph-name="section" unicode="&#xa7;" horiz-adv-x="580" 
d="M431 264v-6c37 -29 50 -73 45 -122c-11 -108 -62 -143 -213 -141c-135 2 -164 92 -164 92l14 91s5 -126 152 -131c146 -5 139 57 143 96c1 6 8 103 -129 96c-141 -7 -188 65 -178 155c2 15 9 69 66 101v7c-39 29 -53 72 -48 124c3 24 13 149 206 128
c94 -9 128 -42 128 -42l-7 -89s-19 68 -128 80c-77 8 -103 -19 -123 -52c-28 -51 -11 -135 114 -127c130 6 189 -80 181 -156c-6 -58 -30 -90 -59 -104zM230 295c32 -4 39 -5 85 -3c91 3 108 49 111 76c2 21 4 111 -123 109c-69 -3 -108 -27 -126 -58
c-23 -40 -14 -108 53 -124z" />
  </font>
</defs>
</svg>
